# xmcd
#
# Track frame offsets:
#	150
#	27666
#	42293
#	51775
#	63665
#	160272
#	185014
#	201545
#	230476
#	258813
#
# Disc length: 3708 seconds
#
# Revision: 1
# Processed by: cddbd v1.5.2PL0 Copyright (c) Steve Scherf et al.
# Submitted via: audiograbber 1.83.01
#
DISCID=920e7a0a
DTITLE=Grateful Dead - 71-11-12 San Antonio Civic Auditorium, San Antonio TX
DYEAR=1900
DGENRE=
TTITLE0=Ramble On Rose
TTITLE1=Me and My Uncle
TTITLE2=Cryptical Envelopment
TTITLE3=Drums
TTITLE4=The Other One
TTITLE5=Cryptical Envelopment
TTITLE6=Big Railroad Blues
TTITLE7=Sugar Magnolia
TTITLE8=Casey Jones
TTITLE9=Johnny B Goode
EXTD=
EXTT0=
EXTT1=
EXTT2=
EXTT3=
EXTT4=
EXTT5=
EXTT6=
EXTT7=
EXTT8=
EXTT9=
PLAYORDER=
